<svg aria-hidden="true" style="position: absolute; width: 0; height: 0; overflow: hidden;" version="1.1" xmlns="http://www.w3.org/2000/svg" xmlns:xlink="http://www.w3.org/1999/xlink">
<defs>
<symbol id="icon-list_alt" viewBox="0 0 24 24">
<title>list_alt</title>
<path d="M6.984 15h2.016v2.016h-2.016v-2.016zM6.984 11.016h2.016v1.969h-2.016v-1.969zM6.984 6.984h2.016v2.016h-2.016v-2.016zM11.016 15h6v2.016h-6v-2.016zM11.016 11.016h6v1.969h-6v-1.969zM11.016 6.984h6v2.016h-6v-2.016zM20.109 3q0.328 0 0.609 0.258t0.281 0.633v16.219q0 0.328-0.281 0.609t-0.609 0.281h-16.219q-0.375 0-0.633-0.281t-0.258-0.609v-16.219q0-0.891 0.891-0.891h16.219zM18.984 5.016h-13.969v13.969h13.969v-13.969z"></path>
</symbol>
<symbol id="icon-dehaze" viewBox="0 0 24 24">
<title>dehaze</title>
<path d="M2.016 5.484h19.969v2.016h-19.969v-2.016zM2.016 10.5h19.969v2.016h-19.969v-2.016zM2.016 15.516h19.969v1.969h-19.969v-1.969z"></path>
</symbol>
<symbol id="icon-thumb_down" viewBox="0 0 24 24">
<title>thumb_down</title>
<path d="M18.984 3h4.031v12h-4.031v-12zM15 3q0.797 0 1.406 0.609t0.609 1.406v9.984q0 0.797-0.609 1.406l-6.563 6.609-1.078-1.078q-0.422-0.422-0.422-1.031v-0.328l0.984-4.594h-6.328q-0.797 0-1.406-0.586t-0.609-1.383v-2.016q0-0.375 0.141-0.75l3.047-7.031q0.469-1.219 1.828-1.219h9z"></path>
</symbol>
<symbol id="icon-thumb_up" viewBox="0 0 24 24">
<title>thumb_up</title>
<path d="M23.016 9.984v2.016q0 0.375-0.141 0.75l-3.047 7.031q-0.469 1.219-1.828 1.219h-9q-0.797 0-1.406-0.609t-0.609-1.406v-9.984q0-0.797 0.609-1.406l6.563-6.609 1.078 1.078q0.422 0.422 0.422 1.031v0.328l-0.984 4.594h6.328q0.797 0 1.406 0.586t0.609 1.383zM0.984 21v-12h4.031v12h-4.031z"></path>
</symbol>
<symbol id="icon-drive_file_rename_outline" viewBox="0 0 24 24">
<title>drive_file_rename_outline</title>
<path d="M11.016 20.016l3.984-4.031h6v4.031h-9.984zM6.188 18l8.672-8.672-1.219-1.219-8.625 8.672v1.219h1.172zM18.422 5.813q0.609 0.609 0.609 1.406t-0.609 1.406l-11.391 11.391h-4.031v-4.078q11.25-11.203 11.391-11.344 0.609-0.609 1.406-0.609t1.406 0.609z"></path>
</symbol>
</defs>
</svg>
